<svg width="1280" height="720" xmlns="http://www.w3.org/2000/svg" xmlns:xlink="http://www.w3.org/1999/xlink" overflow="hidden"><defs><clipPath id="clip0"><rect x="0" y="0" width="1280" height="720"/></clipPath><clipPath id="clip1"><rect x="268" y="191" width="180" height="180"/></clipPath><clipPath id="clip2"><rect x="268" y="191" width="180" height="180"/></clipPath><clipPath id="clip3"><rect x="268" y="191" width="180" height="180"/></clipPath></defs><g clip-path="url(#clip0)"><rect x="0" y="0" width="1280" height="720" fill="#FFFFFF"/><path d="M214.5 223.168C214.5 186.348 244.348 156.5 281.168 156.5L1014.83 156.5C1051.65 156.5 1081.5 186.348 1081.5 223.168L1081.5 489.832C1081.5 526.652 1051.65 556.5 1014.83 556.5L281.168 556.5C244.348 556.5 214.5 526.652 214.5 489.832Z" stroke="#AE5A21" stroke-width="1.33333" stroke-miterlimit="8" fill="#CD8C2A" fill-rule="evenodd"/><text fill="#FFFFFF" font-family="Russo One,Russo One_MSFontService,sans-serif" font-weight="400" font-size="128" transform="translate(288.878 488)">TIPPKISTE<tspan font-size="184" x="143.444" y="-136">LP‘S</tspan></text><g clip-path="url(#clip1)"><g clip-path="url(#clip2)"><g clip-path="url(#clip3)"><path d="M358 209.75C318.625 209.75 286.75 241.625 286.75 281 286.75 320.375 318.625 352.25 358 352.25 397.375 352.25 429.25 320.375 429.25 281 429.25 241.625 397.375 209.75 358 209.75ZM340.938 342.312 345.812 339.312 331.562 317.375 306.25 310.625 304.75 316.25C298.562 306.875 294.625 295.625 294.25 283.625L298.75 287.375 315.25 267.125 313.938 241.062 308.312 241.438C315.438 232.438 325 225.312 336.062 221.375L333.625 226.625 358 236 382.375 226.625 380.312 221.188C391.375 225.312 400.75 232.25 408.062 241.25L402.438 240.875 401.125 266.938 417.625 287.188 422.125 283.438C421.562 295.438 417.812 306.5 411.625 316.062L410.125 310.438 384.812 317.188 370.562 339.125 375.438 342.125C370 343.625 364.188 344.562 358.375 344.562 352.562 344.562 346.375 344 340.938 342.312Z" fill="#FFFFFF"/><path d="M382.375 277.25 358 258.5 333.625 277.25 343 305.375 358 305.375 373 305.375Z" fill="#FFFFFF"/></g></g></g></g></svg>